<svg viewBox="0 0 500 180" xmlns="http://www.w3.org/2000/svg">
  
  <!-- Shower head icon - clean and simple -->
  <g transform="translate(25, 55)">
    <!-- Shower arm/pipe -->
    <!-- <rect x="15" y="0" width="40" height="3" fill="#014569" rx="1"/> -->
    
    <!-- Shower head body -->
    <ellipse cx="35" cy="13" rx="55" ry="17" fill="#014569"/>
    
    <!-- Shower head face plate -->
    <ellipse cx="35" cy="18" rx="48" ry="14" fill="#EDF1FC" opacity="0.3"/>
    
    <!-- Water spray holes -->
    <circle cx="00" cy="11" r="1.5" fill="#014569" opacity="0.6"/>
    <circle cx="17" cy="7" r="1.5" fill="#014569" opacity="0.6"/>
    <circle cx="35" cy="6" r="1.5" fill="#014569" opacity="0.6"/>
    <circle cx="55" cy="7" r="1.5" fill="#014569" opacity="0.6"/>
    <circle cx="71" cy="11" r="1.5" fill="#014569" opacity="0.6"/>

    <circle cx="-7" cy="15" r="1.5" fill="#014569" opacity="0.6"/>
    <circle cx="14" cy="15" r="1.5" fill="#014569" opacity="0.6"/>
    <circle cx="35" cy="15" r="1.5" fill="#014569" opacity="0.6"/>
    <circle cx="56" cy="15" r="1.5" fill="#014569" opacity="0.6"/>
    <circle cx="77" cy="15" r="1.5" fill="#014569" opacity="0.6"/>
    
    <circle cx="00" cy="20" r="1.5" fill="#014569" opacity="0.6"/>
    <circle cx="17" cy="23" r="1.5" fill="#014569" opacity="0.6"/>
    <circle cx="35" cy="25" r="1.5" fill="#014569" opacity="0.6"/>
    <circle cx="55" cy="23" r="1.5" fill="#014569" opacity="0.6"/>
    <circle cx="71" cy="20" r="1.5" fill="#014569" opacity="0.6"/>
    
    <!-- Water drops -->
    <!-- <circle cx="19" cy="20" r="1.2" fill="#014569" opacity="0.5"/>
    <circle cx="28" cy="23" r="1" fill="#014569" opacity="0.5"/>
    <circle cx="35" cy="25" r="1.5" fill="#014569" opacity="0.5"/>
    <circle cx="42" cy="24" r="1" fill="#014569" opacity="0.5"/>
    <circle cx="50" cy="20" r="1.3" fill="#014569" opacity="0.5"/> -->

    <circle cx="02" cy="30" r="4.2" fill="#FFA500" opacity="0.5"/>
    <circle cx="20" cy="33" r="4" fill="#FFA500" opacity="0.5"/>
    <circle cx="38" cy="35" r="4.5" fill="#FFA500" opacity="0.5"/>
    <circle cx="58" cy="34" r="4" fill="#FFA500" opacity="0.5"/>
    <circle cx="74" cy="30" r="4.4" fill="#FFA500" opacity="0.5"/>

    <circle cx="-2" cy="40" r="4.2" fill="#014569" opacity="0.5"/>
    <circle cx="14" cy="43" r="4" fill="#014569" opacity="0.5"/>
    <circle cx="32" cy="45" r="4" fill="#014569" opacity="0.5"/>
    <circle cx="52" cy="44" r="4.5" fill="#014569" opacity="0.5"/>
    <circle cx="68" cy="40" r="4.8" fill="#014569" opacity="0.5"/>

    <circle cx="02" cy="50" r="4.5" fill="#FFA500" opacity="0.5"/>
    <circle cx="20" cy="53" r="4" fill="#FFA500" opacity="0.5"/>
    <circle cx="38" cy="55" r="4" fill="#FFA500" opacity="0.5"/>
    <circle cx="58" cy="54" r="4.3" fill="#FFA500" opacity="0.5"/>
    <circle cx="74" cy="51" r="4.5" fill="#FFA500" opacity="0.5"/>

    <circle cx="-2" cy="61" r="4.7" fill="#014569" opacity="0.5"/>
    <circle cx="14" cy="64" r="4" fill="#014569" opacity="0.5"/>
    <circle cx="32" cy="66" r="4.6" fill="#014569" opacity="0.5"/>
    <circle cx="52" cy="65" r="4" fill="#014569" opacity="0.5"/>
    <circle cx="68" cy="63" r="4.3" fill="#014569" opacity="0.5"/>

    <circle cx="02" cy="73" r="4.5" fill="#FFA500" opacity="0.5"/>
    <circle cx="20" cy="77" r="4" fill="#FFA500" opacity="0.5"/>
    <circle cx="38" cy="80" r="4" fill="#FFA500" opacity="0.5"/>
    <circle cx="58" cy="78" r="4.5" fill="#FFA500" opacity="0.5"/>
    <circle cx="74" cy="77" r="4" fill="#FFA500" opacity="0.5"/>

    <circle cx="-2" cy="90" r="4.5" fill="#014569" opacity="0.5"/>
    <circle cx="17" cy="93" r="4" fill="#014569" opacity="0.5"/>
    <circle cx="35" cy="95" r="4" fill="#014569" opacity="0.5"/>
    <circle cx="55" cy="94" r="4.3" fill="#014569" opacity="0.5"/>
    <circle cx="71" cy="93" r="4.5" fill="#014569" opacity="0.5"/>

  </g>
  
  <!-- CLASSIC text -->
  <text x="120" y="80" 
        font-family="'Helvetica', 'Arial', sans-serif" 
        font-size="44" 
        font-weight="300" 
        fill="#014569" 
        letter-spacing="6">CLASSIC</text>
  
  <!-- BROWNLINE text - bold -->
  <text x="120" y="125" 
        font-family="'Helvetica', 'Arial', sans-serif" 
        font-size="52" 
        font-weight="700" 
        fill="#014569" 
        letter-spacing="4">BROWNLINE</text>
  
  <!-- Extended line matching BROWNLINE width - orange accent -->
  <rect x="120" y="135" width="360" height="3" fill="#FFA500"/>
  
  <!-- Tagline -->
  <text x="120" y="155" 
        font-family="'Helvetica', 'Arial', sans-serif" 
        font-size="14" 
        font-weight="400" 
        fill="#014569" 
        letter-spacing="13" 
        opacity="0.7">PLUMBING SERVICES</text>

</svg>
